<mxfile host="app.diagrams.net" modified="2024-05-08T07:15:02.857Z" agent="Mozilla/5.0 (Windows NT 10.0; Win64; x64) AppleWebKit/537.36 (KHTML, like Gecko) Chrome/124.0.0.0 Safari/537.36" etag="2KbpVa6GjANhY_Yi4snb" version="24.3.1" type="github">
  <diagram id="C5RBs43oDa-KdzZeNtuy" name="Page-1">
    <mxGraphModel dx="1032" dy="418" grid="1" gridSize="10" guides="1" tooltips="1" connect="1" arrows="1" fold="1" page="1" pageScale="1" pageWidth="827" pageHeight="1169" math="0" shadow="0">
      <root>
        <mxCell id="WIyWlLk6GJQsqaUBKTNV-0" />
        <mxCell id="WIyWlLk6GJQsqaUBKTNV-1" parent="WIyWlLk6GJQsqaUBKTNV-0" />
        <mxCell id="Qdt0QcJyTu_v9kI0_eWY-4" value="장바구니 신청" style="rounded=0;whiteSpace=wrap;html=1;" vertex="1" parent="WIyWlLk6GJQsqaUBKTNV-1">
          <mxGeometry x="620" y="80" width="120" height="60" as="geometry" />
        </mxCell>
        <mxCell id="Qdt0QcJyTu_v9kI0_eWY-7" value="수강신청" style="rounded=0;whiteSpace=wrap;html=1;" vertex="1" parent="WIyWlLk6GJQsqaUBKTNV-1">
          <mxGeometry x="190" y="180" width="120" height="60" as="geometry" />
        </mxCell>
        <mxCell id="Qdt0QcJyTu_v9kI0_eWY-8" value="수강가능 과목 신청" style="rounded=0;whiteSpace=wrap;html=1;" vertex="1" parent="WIyWlLk6GJQsqaUBKTNV-1">
          <mxGeometry x="620" y="180" width="120" height="60" as="geometry" />
        </mxCell>
        <mxCell id="Qdt0QcJyTu_v9kI0_eWY-9" value="수강신청 시스템 접속" style="rounded=0;whiteSpace=wrap;html=1;" vertex="1" parent="WIyWlLk6GJQsqaUBKTNV-1">
          <mxGeometry x="330" y="180" width="120" height="60" as="geometry" />
        </mxCell>
        <mxCell id="Qdt0QcJyTu_v9kI0_eWY-10" value="장바구니 불러오기" style="rounded=0;whiteSpace=wrap;html=1;" vertex="1" parent="WIyWlLk6GJQsqaUBKTNV-1">
          <mxGeometry x="470" y="180" width="120" height="60" as="geometry" />
        </mxCell>
        <mxCell id="Qdt0QcJyTu_v9kI0_eWY-11" value="1주일 수강 정정" style="rounded=0;whiteSpace=wrap;html=1;" vertex="1" parent="WIyWlLk6GJQsqaUBKTNV-1">
          <mxGeometry x="760" y="180" width="120" height="60" as="geometry" />
        </mxCell>
        <mxCell id="Qdt0QcJyTu_v9kI0_eWY-12" value="학생" style="rounded=0;whiteSpace=wrap;html=1;" vertex="1" parent="WIyWlLk6GJQsqaUBKTNV-1">
          <mxGeometry y="570" width="120" height="60" as="geometry" />
        </mxCell>
        <mxCell id="Qdt0QcJyTu_v9kI0_eWY-13" value="수윙스 접속" style="rounded=0;whiteSpace=wrap;html=1;" vertex="1" parent="WIyWlLk6GJQsqaUBKTNV-1">
          <mxGeometry x="190" y="180" width="120" height="60" as="geometry" />
        </mxCell>
        <mxCell id="Qdt0QcJyTu_v9kI0_eWY-16" value="" style="endArrow=none;html=1;rounded=0;exitX=1;exitY=0.5;exitDx=0;exitDy=0;entryX=0;entryY=0.5;entryDx=0;entryDy=0;" edge="1" parent="WIyWlLk6GJQsqaUBKTNV-1" source="Qdt0QcJyTu_v9kI0_eWY-12" target="Qdt0QcJyTu_v9kI0_eWY-46">
          <mxGeometry width="50" height="50" relative="1" as="geometry">
            <mxPoint x="120" y="599.6" as="sourcePoint" />
            <mxPoint x="160" y="599.6" as="targetPoint" />
          </mxGeometry>
        </mxCell>
        <mxCell id="Qdt0QcJyTu_v9kI0_eWY-30" value="수강신청 시스템" style="rounded=0;whiteSpace=wrap;html=1;" vertex="1" parent="WIyWlLk6GJQsqaUBKTNV-1">
          <mxGeometry x="280" y="570" width="120" height="60" as="geometry" />
        </mxCell>
        <mxCell id="Qdt0QcJyTu_v9kI0_eWY-33" value="" style="endArrow=none;html=1;rounded=0;exitX=1;exitY=0.5;exitDx=0;exitDy=0;entryX=0;entryY=0.5;entryDx=0;entryDy=0;" edge="1" parent="WIyWlLk6GJQsqaUBKTNV-1" source="Qdt0QcJyTu_v9kI0_eWY-46" target="Qdt0QcJyTu_v9kI0_eWY-30">
          <mxGeometry width="50" height="50" relative="1" as="geometry">
            <mxPoint x="240" y="599.6" as="sourcePoint" />
            <mxPoint x="280" y="599.6" as="targetPoint" />
          </mxGeometry>
        </mxCell>
        <mxCell id="Qdt0QcJyTu_v9kI0_eWY-46" value="장바구니 강의들 신청" style="rhombus;whiteSpace=wrap;html=1;" vertex="1" parent="WIyWlLk6GJQsqaUBKTNV-1">
          <mxGeometry x="160" y="580" width="80" height="40" as="geometry" />
        </mxCell>
        <mxCell id="Qdt0QcJyTu_v9kI0_eWY-51" value="" style="endArrow=none;html=1;rounded=0;entryX=0;entryY=0.5;entryDx=0;entryDy=0;" edge="1" parent="WIyWlLk6GJQsqaUBKTNV-1" target="Qdt0QcJyTu_v9kI0_eWY-52">
          <mxGeometry width="50" height="50" relative="1" as="geometry">
            <mxPoint x="120" y="630" as="sourcePoint" />
            <mxPoint x="190" y="660" as="targetPoint" />
          </mxGeometry>
        </mxCell>
        <mxCell id="Qdt0QcJyTu_v9kI0_eWY-52" value="직접 찾아서 신청" style="rhombus;whiteSpace=wrap;html=1;" vertex="1" parent="WIyWlLk6GJQsqaUBKTNV-1">
          <mxGeometry x="160" y="630" width="80" height="40" as="geometry" />
        </mxCell>
        <mxCell id="Qdt0QcJyTu_v9kI0_eWY-55" value="" style="endArrow=none;html=1;rounded=0;exitX=1;exitY=0.5;exitDx=0;exitDy=0;entryX=0;entryY=0;entryDx=0;entryDy=0;" edge="1" parent="WIyWlLk6GJQsqaUBKTNV-1" source="Qdt0QcJyTu_v9kI0_eWY-52">
          <mxGeometry width="50" height="50" relative="1" as="geometry">
            <mxPoint x="240" y="629.2" as="sourcePoint" />
            <mxPoint x="280" y="629.2" as="targetPoint" />
          </mxGeometry>
        </mxCell>
        <mxCell id="Qdt0QcJyTu_v9kI0_eWY-56" value="로그인" style="rhombus;whiteSpace=wrap;html=1;" vertex="1" parent="WIyWlLk6GJQsqaUBKTNV-1">
          <mxGeometry x="160" y="530" width="80" height="40" as="geometry" />
        </mxCell>
        <mxCell id="Qdt0QcJyTu_v9kI0_eWY-57" value="" style="endArrow=none;html=1;rounded=0;exitX=0;exitY=0.5;exitDx=0;exitDy=0;" edge="1" parent="WIyWlLk6GJQsqaUBKTNV-1" source="Qdt0QcJyTu_v9kI0_eWY-56">
          <mxGeometry width="50" height="50" relative="1" as="geometry">
            <mxPoint x="130" y="580" as="sourcePoint" />
            <mxPoint x="120" y="570" as="targetPoint" />
          </mxGeometry>
        </mxCell>
        <mxCell id="Qdt0QcJyTu_v9kI0_eWY-58" value="" style="endArrow=none;html=1;rounded=0;exitX=1;exitY=0.5;exitDx=0;exitDy=0;entryX=0;entryY=0;entryDx=0;entryDy=0;" edge="1" parent="WIyWlLk6GJQsqaUBKTNV-1" source="Qdt0QcJyTu_v9kI0_eWY-56" target="Qdt0QcJyTu_v9kI0_eWY-30">
          <mxGeometry width="50" height="50" relative="1" as="geometry">
            <mxPoint x="140" y="590" as="sourcePoint" />
            <mxPoint x="180" y="590" as="targetPoint" />
          </mxGeometry>
        </mxCell>
      </root>
    </mxGraphModel>
  </diagram>
</mxfile>
